<?xml version="1.0" encoding="UTF-8"?>
<svg xmlns="http://www.w3.org/2000/svg" width="24" height="24" viewBox="0 0 24 24" fill="none">
  <path fill-rule="evenodd" clip-rule="evenodd" d="M0.75 20.25C0.75 19.8358 1.08579 19.5 1.5 19.5H22.5C22.9142 19.5 23.25 19.8358 23.25 20.25C23.25 20.6642 22.9142 21 22.5 21H1.5C1.08579 21 0.75 20.6642 0.75 20.25Z" fill="currentColor"></path>
  <path fill-rule="evenodd" clip-rule="evenodd" d="M2.68934 2.68934C2.97064 2.40804 3.35217 2.25 3.75 2.25H12.75C13.1478 2.25 13.5294 2.40804 13.8107 2.68934C14.092 2.97065 14.25 3.35218 14.25 3.75V20.25C14.25 20.6642 13.9142 21 13.5 21C13.0858 21 12.75 20.6642 12.75 20.25L12.75 3.75H3.75L3.75 20.25C3.75 20.6642 3.41421 21 3 21C2.58579 21 2.25 20.6642 2.25 20.25V3.75C2.25 3.35217 2.40804 2.97064 2.68934 2.68934Z" fill="currentColor"></path>
  <path fill-rule="evenodd" clip-rule="evenodd" d="M12.75 9C12.75 8.58579 13.0858 8.25 13.5 8.25H20.25C20.6478 8.25 21.0294 8.40804 21.3107 8.68934C21.592 8.97065 21.75 9.35218 21.75 9.75V20.25C21.75 20.6642 21.4142 21 21 21C20.5858 21 20.25 20.6642 20.25 20.25L20.25 9.75L13.5 9.75C13.0858 9.75 12.75 9.41421 12.75 9Z" fill="currentColor"></path>
  <path fill-rule="evenodd" clip-rule="evenodd" d="M5.25 6.75C5.25 6.33579 5.58579 6 6 6H9C9.41421 6 9.75 6.33579 9.75 6.75C9.75 7.16421 9.41421 7.5 9 7.5H6C5.58579 7.5 5.25 7.16421 5.25 6.75Z" fill="currentColor"></path>
  <path fill-rule="evenodd" clip-rule="evenodd" d="M6.75 12.75C6.75 12.3358 7.08579 12 7.5 12H10.5C10.9142 12 11.25 12.3358 11.25 12.75C11.25 13.1642 10.9142 13.5 10.5 13.5H7.5C7.08579 13.5 6.75 13.1642 6.75 12.75Z" fill="currentColor"></path>
  <path fill-rule="evenodd" clip-rule="evenodd" d="M5.25 16.5C5.25 16.0858 5.58579 15.75 6 15.75H9C9.41421 15.75 9.75 16.0858 9.75 16.5C9.75 16.9142 9.41421 17.25 9 17.25H6C5.58579 17.25 5.25 16.9142 5.25 16.5Z" fill="currentColor"></path>
  <path fill-rule="evenodd" clip-rule="evenodd" d="M15.75 16.5C15.75 16.0858 16.0858 15.75 16.5 15.75H18C18.4142 15.75 18.75 16.0858 18.75 16.5C18.75 16.9142 18.4142 17.25 18 17.25H16.5C16.0858 17.25 15.75 16.9142 15.75 16.5Z" fill="currentColor"></path>
  <path fill-rule="evenodd" clip-rule="evenodd" d="M15.75 12.75C15.75 12.3358 16.0858 12 16.5 12H18C18.4142 12 18.75 12.3358 18.75 12.75C18.75 13.1642 18.4142 13.5 18 13.5H16.5C16.0858 13.5 15.75 13.1642 15.75 12.75Z" fill="currentColor"></path>
</svg>
