<svg width="24" height="24" viewBox="0 0 24 24" fill="none" xmlns="http://www.w3.org/2000/svg">
<path fill-rule="evenodd" clip-rule="evenodd" d="M8.25 9.75C8.25 9.33579 8.58579 9 9 9H15C15.4142 9 15.75 9.33579 15.75 9.75C15.75 10.1642 15.4142 10.5 15 10.5H9C8.58579 10.5 8.25 10.1642 8.25 9.75Z" fill="white"/>
<path fill-rule="evenodd" clip-rule="evenodd" d="M8.25 12.75C8.25 12.3358 8.58579 12 9 12H15C15.4142 12 15.75 12.3358 15.75 12.75C15.75 13.1642 15.4142 13.5 15 13.5H9C8.58579 13.5 8.25 13.1642 8.25 12.75Z" fill="white"/>
<path fill-rule="evenodd" clip-rule="evenodd" d="M2.68934 4.18934C2.97064 3.90804 3.35217 3.75 3.75 3.75H20.25C20.6478 3.75 21.0294 3.90804 21.3107 4.18934C21.592 4.47065 21.75 4.85218 21.75 5.25V17.25C21.75 17.6478 21.592 18.0294 21.3107 18.3107C21.0294 18.592 20.6478 18.75 20.25 18.75H14.6759L14.6777 18.7511L13.2858 21.0741C13.1507 21.2938 12.9616 21.4752 12.7365 21.601C12.5114 21.7268 12.2579 21.7929 12 21.7929C11.7421 21.7929 11.4886 21.7268 11.2635 21.601C11.0384 21.4752 10.8493 21.2938 10.7142 21.0741L10.7097 21.0668L9.32161 18.75H3.75C3.35218 18.75 2.97065 18.592 2.68934 18.3107C2.40804 18.0294 2.25 17.6478 2.25 17.25V5.25C2.25 4.85217 2.40804 4.47064 2.68934 4.18934ZM14.6759 18.75C14.6767 18.7498 14.677 18.7492 14.6777 18.7488C14.6791 18.7479 14.6803 18.7468 14.6811 18.7454L14.673 18.7406L14.6731 18.7483L14.6759 18.75ZM14.6719 18.7476V18.7399L14.0344 18.3656L14.6719 18.7476ZM13.3896 17.9825C13.5208 17.7603 13.7075 17.576 13.9314 17.4476C14.1565 17.3185 14.4113 17.2504 14.6707 17.25L14.6719 17.25L20.25 17.25V5.25L3.75 5.25L3.75 17.25H9.32931C9.58872 17.2504 9.84353 17.3185 10.0686 17.4476C10.2925 17.576 10.4792 17.7603 10.6104 17.9825L11.9925 20.2891C11.9933 20.2902 11.9943 20.291 11.9954 20.2917C11.9958 20.2919 11.9962 20.2921 11.9966 20.2922C11.9977 20.2927 11.9988 20.2929 12 20.2929C12.0016 20.2929 12.0032 20.2925 12.0046 20.2917C12.0057 20.291 12.0067 20.2902 12.0075 20.2891L13.3896 17.9825Z" fill="white"/>
</svg>
