<?xml version="1.0" encoding="UTF-8"?>
<svg xmlns="http://www.w3.org/2000/svg" width="24" height="24" viewBox="0 0 24 24" fill="none">
  <path fill-rule="evenodd" clip-rule="evenodd" d="M18.477 11.2854C18.8353 11.0776 19.2942 11.1997 19.502 11.558L21.6489 15.2612C21.8566 15.6195 21.7345 16.0784 21.3762 16.2862C21.0178 16.4939 20.5589 16.3718 20.3512 16.0135L18.2043 12.3104C17.9966 11.952 18.1186 11.4931 18.477 11.2854Z" fill="currentColor"></path>
  <path fill-rule="evenodd" clip-rule="evenodd" d="M14.3262 13.2581C14.7341 13.1862 15.1231 13.4586 15.1949 13.8666L15.8606 17.6447C15.9324 18.0526 15.66 18.4416 15.2521 18.5135C14.8441 18.5853 14.4552 18.3129 14.3833 17.905L13.7177 14.1268C13.6458 13.7189 13.9182 13.33 14.3262 13.2581Z" fill="currentColor"></path>
  <path fill-rule="evenodd" clip-rule="evenodd" d="M9.66422 13.2488C10.0722 13.3204 10.3448 13.7093 10.2731 14.1172L9.60746 17.9047C9.53576 18.3127 9.14692 18.5853 8.73896 18.5136C8.331 18.4419 8.0584 18.0531 8.1301 17.6451L8.79572 13.8576C8.86742 13.4497 9.25626 13.1771 9.66422 13.2488Z" fill="currentColor"></path>
  <path fill-rule="evenodd" clip-rule="evenodd" d="M5.51222 11.2845C5.87102 11.4915 5.99411 11.9502 5.78715 12.309L3.64027 16.0308C3.4333 16.3896 2.97466 16.5127 2.61586 16.3057C2.25706 16.0988 2.13397 15.6401 2.34094 15.2813L4.48781 11.5595C4.69478 11.2007 5.15342 11.0776 5.51222 11.2845Z" fill="currentColor"></path>
  <path fill-rule="evenodd" clip-rule="evenodd" d="M2.52877 9.25104C2.85101 8.99078 3.32322 9.04101 3.58348 9.36325C5.07563 11.2107 7.7694 13.5001 12 13.5001C16.2306 13.5001 18.9244 11.2107 20.4166 9.36325C20.6768 9.04101 21.149 8.99078 21.4713 9.25104C21.7935 9.51131 21.8437 9.98352 21.5835 10.3058C19.9256 12.3583 16.8444 15.0001 12 15.0001C7.15565 15.0001 4.07442 12.3583 2.41657 10.3058C2.1563 9.98352 2.20654 9.51131 2.52877 9.25104Z" fill="currentColor"></path>
</svg>
