<svg width="20" height="18" viewBox="0 0 20 18" fill="none" xmlns="http://www.w3.org/2000/svg">
<path fill-rule="evenodd" clip-rule="evenodd" d="M7.50005 3.375C5.50569 3.375 3.88894 5.01196 3.88894 7.03125C3.88894 9.05054 5.50569 10.6875 7.50005 10.6875C9.49442 10.6875 11.1112 9.05054 11.1112 7.03125C11.1112 5.01196 9.49442 3.375 7.50005 3.375ZM2.77783 7.03125C2.77783 4.39064 4.89204 2.25 7.50005 2.25C10.1081 2.25 12.2223 4.39064 12.2223 7.03125C12.2223 9.67186 10.1081 11.8125 7.50005 11.8125C4.89204 11.8125 2.77783 9.67186 2.77783 7.03125Z" fill="black"/>
<path fill-rule="evenodd" clip-rule="evenodd" d="M7.49999 11.8115C6.44532 11.8115 5.40345 12.0454 4.44761 12.4967C3.49176 12.948 2.64514 13.6058 1.96725 14.4239C1.77003 14.6619 1.41962 14.6929 1.18457 14.4932C0.949516 14.2936 0.918844 13.9388 1.11606 13.7008C1.89824 12.7569 2.87511 11.9979 3.97801 11.4771C5.08091 10.9564 6.28306 10.6865 7.49999 10.6865C8.71691 10.6865 9.91907 10.9564 11.022 11.4771C12.1249 11.9979 13.1017 12.7569 13.8839 13.7008C14.0811 13.9388 14.0505 14.2936 13.8154 14.4932C13.5804 14.6929 13.2299 14.6619 13.0327 14.4239C12.3548 13.6058 11.5082 12.948 10.5524 12.4967C9.59652 12.0454 8.55465 11.8115 7.49999 11.8115Z" fill="black"/>
<path fill-rule="evenodd" clip-rule="evenodd" d="M16.6666 2.32031C16.0913 2.32031 15.6249 2.79251 15.6249 3.375C15.6249 3.95749 16.0913 4.42969 16.6666 4.42969C17.2419 4.42969 17.7083 3.95749 17.7083 3.375C17.7083 2.79251 17.2419 2.32031 16.6666 2.32031ZM15.2083 3.375C15.2083 2.55952 15.8612 1.89844 16.6666 1.89844C17.472 1.89844 18.1249 2.55952 18.1249 3.375C18.1249 4.19048 17.472 4.85156 16.6666 4.85156C15.8612 4.85156 15.2083 4.19048 15.2083 3.375Z" fill="black"/>
<path fill-rule="evenodd" clip-rule="evenodd" d="M15.7744 0.560982C15.8316 0.54228 15.894 0.54952 15.9456 0.580842L16.5546 0.950798C16.6292 0.947421 16.704 0.947423 16.7786 0.950804L17.3851 0.583353C17.4362 0.552372 17.498 0.545042 17.5548 0.563218C17.9528 0.690524 18.3187 0.903884 18.6272 1.18853C18.6714 1.22933 18.6962 1.28742 18.6951 1.34798L18.6832 2.06471C18.7244 2.12865 18.7621 2.19476 18.7963 2.26276L19.4136 2.61027C19.4656 2.63953 19.5027 2.68989 19.5157 2.74867C19.6065 3.16054 19.6075 3.58752 19.5185 3.99981C19.5057 4.05909 19.4683 4.10992 19.4159 4.13931L18.7962 4.48683C18.762 4.55477 18.7243 4.62082 18.6832 4.68471L18.6951 5.40143C18.6962 5.462 18.6714 5.52009 18.6272 5.56089C18.3193 5.84492 17.955 6.05889 17.5587 6.18843C17.5014 6.20714 17.439 6.1999 17.3875 6.16857L16.7785 5.79862C16.7038 5.802 16.6291 5.80199 16.5544 5.79861L15.948 6.16606C15.8969 6.19704 15.8351 6.20437 15.7782 6.1862C15.3803 6.05889 15.0144 5.84553 14.7059 5.56089C14.6617 5.52008 14.6369 5.46199 14.6379 5.40142L14.6498 4.68632C14.609 4.62172 14.5713 4.5551 14.5369 4.48672L13.9195 4.13914C13.8675 4.10988 13.8303 4.05952 13.8174 4.00075C13.7265 3.58887 13.7256 3.16189 13.8146 2.7496C13.8274 2.69033 13.8647 2.6395 13.9172 2.6101L14.5369 2.26258C14.571 2.19465 14.6087 2.12859 14.6498 2.06471L14.6379 1.34798C14.6369 1.28741 14.6617 1.22933 14.7059 1.18852C15.0137 0.9045 15.3781 0.690522 15.7744 0.560982ZM15.0561 1.43848L15.0675 2.12399C15.0683 2.1684 15.0552 2.21191 15.03 2.24833C14.9742 2.32933 14.9252 2.41503 14.8838 2.50449C14.8652 2.54471 14.8345 2.57795 14.7961 2.59947L14.2035 2.93176C14.1517 3.22476 14.1524 3.52483 14.2057 3.81757L14.7964 4.15011C14.8345 4.17156 14.865 4.20455 14.8836 4.24445C14.9259 4.33529 14.9753 4.42259 15.0313 4.50552C15.0556 4.54159 15.0683 4.58441 15.0675 4.62808L15.0562 5.31091C15.2813 5.50352 15.5388 5.65365 15.8164 5.75414L16.3955 5.40328C16.4322 5.38105 16.4747 5.37079 16.5173 5.37388C16.6167 5.38107 16.7164 5.38107 16.8157 5.37388C16.8584 5.37078 16.9011 5.38109 16.9378 5.4034L17.5187 5.75633C17.7954 5.65424 18.0521 5.50345 18.2769 5.31094L18.2655 4.62543C18.2648 4.58102 18.2779 4.5375 18.303 4.50109C18.3589 4.42009 18.4078 4.33438 18.4493 4.24492C18.4679 4.20471 18.4986 4.17147 18.5369 4.14995L19.1295 3.81765C19.1813 3.52466 19.1806 3.22459 19.1274 2.93185L18.5367 2.5993C18.4984 2.57777 18.4678 2.5446 18.4493 2.50449C18.4078 2.41503 18.3589 2.32933 18.303 2.24833C18.2779 2.21191 18.2648 2.1684 18.2655 2.12399L18.2769 1.43851C18.0517 1.2459 17.7942 1.09577 17.5167 0.995272L16.9376 1.34614C16.9009 1.36836 16.8584 1.37862 16.8157 1.37554C16.7164 1.36834 16.6167 1.36834 16.5173 1.37554C16.4746 1.37863 16.432 1.36832 16.3953 1.34601L15.8143 0.993088C15.5377 1.09518 15.281 1.24596 15.0561 1.43848Z" fill="black"/>
</svg>
