<?xml version="1.0" encoding="UTF-8"?>
<svg xmlns="http://www.w3.org/2000/svg" width="24" height="24" viewBox="0 0 24 24" fill="none">
  <path fill-rule="evenodd" clip-rule="evenodd" d="M3.75 4.5C4.16421 4.5 4.5 4.83579 4.5 5.25V18.75C4.5 19.1642 4.16421 19.5 3.75 19.5C3.33579 19.5 3 19.1642 3 18.75V5.25C3 4.83579 3.33579 4.5 3.75 4.5Z" fill="currentColor"></path>
  <path fill-rule="evenodd" clip-rule="evenodd" d="M9.75 8.25C10.1642 8.25 10.5 8.58579 10.5 9V12C10.5 12.4142 10.1642 12.75 9.75 12.75C9.33579 12.75 9 12.4142 9 12V9C9 8.58579 9.33579 8.25 9.75 8.25Z" fill="currentColor"></path>
  <path fill-rule="evenodd" clip-rule="evenodd" d="M6.18697 10.8396C6.31523 10.4458 6.73849 10.2305 7.13234 10.3587L9.98234 11.2868C10.3762 11.4151 10.5915 11.8384 10.4632 12.2322C10.335 12.6261 9.91172 12.8414 9.51787 12.7131L6.66787 11.785C6.27401 11.6567 6.05871 11.2335 6.18697 10.8396Z" fill="currentColor"></path>
  <path fill-rule="evenodd" clip-rule="evenodd" d="M10.1904 11.3931C10.5256 11.6364 10.6001 12.1054 10.3568 12.4406L8.59432 14.8687C8.35099 15.204 7.882 15.2785 7.54679 15.0351C7.21157 14.7918 7.13708 14.3228 7.3804 13.9876L9.1429 11.5595C9.38622 11.2243 9.85522 11.1498 10.1904 11.3931Z" fill="currentColor"></path>
  <path fill-rule="evenodd" clip-rule="evenodd" d="M9.30948 11.3931C9.6447 11.1498 10.1137 11.2243 10.357 11.5595L12.1195 13.9876C12.3628 14.3228 12.2883 14.7918 11.9531 15.0351C11.6179 15.2785 11.1489 15.204 10.9056 14.8687L9.1431 12.4406C8.89978 12.1054 8.97427 11.6364 9.30948 11.3931Z" fill="currentColor"></path>
  <path fill-rule="evenodd" clip-rule="evenodd" d="M13.3133 10.8396C13.4416 11.2335 13.2263 11.6567 12.8324 11.785L9.98244 12.7131C9.58859 12.8414 9.16533 12.6261 9.03707 12.2322C8.9088 11.8384 9.12411 11.4151 9.51796 11.2868L12.368 10.3587C12.7618 10.2305 13.1851 10.4458 13.3133 10.8396Z" fill="currentColor"></path>
  <path fill-rule="evenodd" clip-rule="evenodd" d="M18.75 8.25C19.1642 8.25 19.5 8.58579 19.5 9V12C19.5 12.4142 19.1642 12.75 18.75 12.75C18.3358 12.75 18 12.4142 18 12V9C18 8.58579 18.3358 8.25 18.75 8.25Z" fill="currentColor"></path>
  <path fill-rule="evenodd" clip-rule="evenodd" d="M15.187 10.8396C15.3152 10.4458 15.7385 10.2305 16.1323 10.3587L18.9823 11.2868C19.3762 11.4151 19.5915 11.8384 19.4632 12.2322C19.335 12.6261 18.9117 12.8414 18.5179 12.7131L15.6679 11.785C15.274 11.6567 15.0587 11.2335 15.187 10.8396Z" fill="currentColor"></path>
  <path fill-rule="evenodd" clip-rule="evenodd" d="M19.1904 11.3931C19.5256 11.6364 19.6001 12.1054 19.3568 12.4406L17.5943 14.8687C17.351 15.204 16.882 15.2785 16.5468 15.0351C16.2116 14.7918 16.1371 14.3228 16.3804 13.9876L18.1429 11.5595C18.3862 11.2243 18.8552 11.1498 19.1904 11.3931Z" fill="currentColor"></path>
  <path fill-rule="evenodd" clip-rule="evenodd" d="M18.3095 11.3931C18.6447 11.1498 19.1137 11.2243 19.357 11.5595L21.1195 13.9876C21.3628 14.3228 21.2883 14.7918 20.9531 15.0351C20.6179 15.2785 20.1489 15.204 19.9056 14.8687L18.1431 12.4406C17.8998 12.1054 17.9743 11.6364 18.3095 11.3931Z" fill="currentColor"></path>
  <path fill-rule="evenodd" clip-rule="evenodd" d="M22.3133 10.8396C22.4416 11.2335 22.2263 11.6567 21.8324 11.785L18.9824 12.7131C18.5886 12.8414 18.1653 12.6261 18.0371 12.2322C17.9088 11.8384 18.1241 11.4151 18.518 11.2868L21.368 10.3587C21.7618 10.2305 22.1851 10.4458 22.3133 10.8396Z" fill="currentColor"></path>
</svg>
