<svg width="20" height="20" viewBox="0 0 20 20" fill="none" xmlns="http://www.w3.org/2000/svg">
<path fill-rule="evenodd" clip-rule="evenodd" d="M10 8.75C8.96447 8.75 8.125 9.58947 8.125 10.625C8.125 11.6605 8.96447 12.5 10 12.5C11.0355 12.5 11.875 11.6605 11.875 10.625C11.875 9.58947 11.0355 8.75 10 8.75ZM6.875 10.625C6.875 8.89911 8.27411 7.5 10 7.5C11.7259 7.5 13.125 8.89911 13.125 10.625C13.125 12.3509 11.7259 13.75 10 13.75C8.27411 13.75 6.875 12.3509 6.875 10.625Z" fill="black"/>
<path fill-rule="evenodd" clip-rule="evenodd" d="M10 13.75C9.36935 13.75 8.74733 13.8968 8.18323 14.1789C7.61913 14.4609 7.12845 14.8705 6.75004 15.375C6.54293 15.6511 6.15118 15.7071 5.87504 15.5C5.59889 15.2929 5.54293 14.9011 5.75004 14.625C6.24488 13.9652 6.88654 13.4297 7.62421 13.0609C8.36188 12.692 9.1753 12.5 10 12.5C10.8248 12.5 11.6382 12.692 12.3759 13.0609C13.1135 13.4297 13.7552 13.9652 14.25 14.625C14.4571 14.9011 14.4012 15.2929 14.125 15.5C13.8489 15.7071 13.4571 15.6511 13.25 15.375C12.8716 14.8705 12.3809 14.4609 11.8168 14.1789C11.2527 13.8968 10.6307 13.75 10 13.75Z" fill="black"/>
<path fill-rule="evenodd" clip-rule="evenodd" d="M15.625 1.875C16.3154 1.875 16.875 2.43464 16.875 3.125V16.875C16.875 17.5654 16.3154 18.125 15.625 18.125H4.375C3.68464 18.125 3.125 17.5654 3.125 16.875L3.125 3.125C3.125 2.43464 3.68464 1.875 4.375 1.875L15.625 1.875ZM15.625 16.875V3.125L4.375 3.125L4.375 16.875H15.625Z" fill="black"/>
<path fill-rule="evenodd" clip-rule="evenodd" d="M6.875 5C6.875 4.65482 7.15482 4.375 7.5 4.375H12.5C12.8452 4.375 13.125 4.65482 13.125 5C13.125 5.34518 12.8452 5.625 12.5 5.625H7.5C7.15482 5.625 6.875 5.34518 6.875 5Z" fill="black"/>
</svg>
