<?xml version="1.0" encoding="UTF-8"?>
<svg xmlns="http://www.w3.org/2000/svg" width="24" height="24" viewBox="0 0 24 24" fill="none">
  <path fill-rule="evenodd" clip-rule="evenodd" d="M12 3.75C9.1005 3.75 6.75 6.1005 6.75 9C6.75 11.8995 9.1005 14.25 12 14.25C14.8995 14.25 17.25 11.8995 17.25 9C17.25 6.1005 14.8995 3.75 12 3.75ZM5.25 9C5.25 5.27208 8.27208 2.25 12 2.25C15.7279 2.25 18.75 5.27208 18.75 9C18.75 12.7279 15.7279 15.75 12 15.75C8.27208 15.75 5.25 12.7279 5.25 9Z" fill="currentColor"></path>
  <path fill-rule="evenodd" clip-rule="evenodd" d="M12.0001 15.75C10.2885 15.75 8.60702 16.2006 7.12474 17.0565C5.64246 17.9124 4.41161 19.1434 3.55593 20.6258C3.34886 20.9845 2.89017 21.1075 2.53144 20.9004C2.1727 20.6933 2.04975 20.2346 2.25682 19.8759C3.24415 18.1654 4.66435 16.745 6.37468 15.7575C8.085 14.7699 10.0252 14.25 12.0001 14.25C13.9751 14.25 15.9153 14.7699 17.6256 15.7575C19.3359 16.745 20.7561 18.1654 21.7434 19.8759C21.9505 20.2346 21.8276 20.6933 21.4688 20.9004C21.1101 21.1075 20.6514 20.9845 20.4443 20.6258C19.5886 19.1434 18.3578 17.9124 16.8755 17.0565C15.3932 16.2006 13.7118 15.75 12.0001 15.75Z" fill="currentColor"></path>
</svg>
