<?xml version="1.0" encoding="UTF-8"?>
<svg xmlns="http://www.w3.org/2000/svg" width="24" height="24" viewBox="0 0 24 24" fill="none">
  <path fill-rule="evenodd" clip-rule="evenodd" d="M12 3.75C9.1005 3.75 6.75 6.1005 6.75 9C6.75 11.8995 9.1005 14.25 12 14.25C14.8995 14.25 17.25 11.8995 17.25 9C17.25 6.1005 14.8995 3.75 12 3.75ZM5.25 9C5.25 5.27208 8.27208 2.25 12 2.25C15.7279 2.25 18.75 5.27208 18.75 9C18.75 12.7279 15.7279 15.75 12 15.75C8.27208 15.75 5.25 12.7279 5.25 9Z" fill="currentColor"></path>
  <path fill-rule="evenodd" clip-rule="evenodd" d="M12 15.749C10.2884 15.749 8.60689 16.1996 7.12461 17.0555C5.64233 17.9114 4.41149 19.1424 3.55581 20.6248C3.34873 20.9835 2.89005 21.1065 2.53131 20.8994C2.17257 20.6923 2.04963 20.2337 2.2567 19.8749C3.24402 18.1645 4.66423 16.7441 6.37455 15.7565C8.08488 14.7689 10.025 14.249 12 14.249C13.975 14.249 15.9151 14.7689 17.6255 15.7565C19.3358 16.7441 20.756 18.1645 21.7433 19.8749C21.9504 20.2337 21.8274 20.6923 21.4687 20.8994C21.11 21.1065 20.6513 20.9835 20.4442 20.6248C19.5885 19.1424 18.3577 17.9114 16.8754 17.0555C15.3931 16.1996 13.7116 15.749 12 15.749Z" fill="currentColor"></path>
</svg>
